# xmcd
#
# Track frame offsets:
#	150
#	25867
#	58775
#	79231
#	113550
#	124173
#	154625
#	170713
#	188649
#	208478
#	222283
#	252371
#	279220
#
# Disc length: 3990
#
# Revision: 3
# Processed by: cddbd v1.5.1PL0 Copyright (c) Steve Scherf et al.
# Submitted via: CDex 1.50Beta7
# Normalized: r1:DSETVAR1,TDELIM( - ),TSWAP
#
DISCID=b90f940d
DTITLE=Various Artist - Jazz Standards on Blue Note
DYEAR=2001
DGENRE=Jazz
TTITLE0=Charlie Parker and Dizzy Gillespie - Confirmation
TTITLE1=Horace Silver - Song for my father
TTITLE2=Duke Ellington - Caravan
TTITLE3=Grant Green - You don't know what love is
TTITLE4=Chet Baker - My funny Valentine
TTITLE5=Dexter Gordon - I'm a fool to want you
TTITLE6=John Lewis - I can't get started
TTITLE7=George Shearing - Like someone in love
TTITLE8=Art Pepper - Body and soul
TTITLE9=Milt Jackson - Willow weep for me
TTITLE10=The Three Sounds - Stairway to the stars
TTITLE11=Ike Quebec - Lover man
TTITLE12=Jimmy Smith - Autumn in New York
EXTD=YEAR: 2001
EXTT0=
EXTT1=
EXTT2=
EXTT3=
EXTT4=
EXTT5=
EXTT6=
EXTT7=
EXTT8=
EXTT9=
EXTT10=
EXTT11=
EXTT12=
PLAYORDER=
